<svg xmlns="http://www.w3.org/2000/svg" viewBox="0 0 555.1 512"><defs><style>.cls-1{fill:#f1f0f0;}.cls-2{fill:#2d2f77;}</style></defs><title>Fichier 2</title><g id="Calque_2" data-name="Calque 2"><g id="Calque_1-2" data-name="Calque 1"><circle id="_Tracé_" data-name="&lt;Tracé&gt;" class="cls-1" cx="277.55" cy="256" r="256"/><g id="_Groupe_" data-name="&lt;Groupe&gt;"><g id="_Groupe_2" data-name="&lt;Groupe&gt;"><path class="cls-2" d="M75.16,370.4H2.59a2.59,2.59,0,1,1,0-5.17H75.16a2.59,2.59,0,1,1,0,5.17Z"/><path class="cls-2" d="M552.51,370.4H489.83a2.59,2.59,0,1,1,0-5.17h62.68a2.59,2.59,0,1,1,0,5.17Z"/><path class="cls-2" d="M475.13,370.4h-372a2.59,2.59,0,1,1,0-5.17h372a2.59,2.59,0,0,1,0,5.17Z"/></g><g id="_Groupe_3" data-name="&lt;Groupe&gt;"><path class="cls-2" d="M145.19,400.14H85.78a1.3,1.3,0,0,1,0-2.59h59.41a1.3,1.3,0,1,1,0,2.59Z"/><path class="cls-2" d="M240.83,400.14H181.37a1.3,1.3,0,0,1,0-2.59h59.46a1.3,1.3,0,0,1,0,2.59Z"/><path class="cls-2" d="M397.28,400.14H274.8a1.3,1.3,0,0,1,0-2.59H397.28a1.3,1.3,0,1,1,0,2.59Z"/><path class="cls-2" d="M503.08,400.14H433.4a1.3,1.3,0,0,1,0-2.59h69.68a1.3,1.3,0,1,1,0,2.59Z"/></g></g><path class="cls-2" d="M427,185.32a18.17,18.17,0,1,1,18.17-18.17A18.19,18.19,0,0,1,427,185.32Zm0-29.41a11.25,11.25,0,1,0,11.25,11.24A11.25,11.25,0,0,0,427,155.91Z"/><path class="cls-2" d="M117.8,262.42A18.17,18.17,0,1,1,136,244.26,18.19,18.19,0,0,1,117.8,262.42Zm0-29.41a11.25,11.25,0,1,0,11.25,11.25A11.27,11.27,0,0,0,117.8,233Z"/><path class="cls-2" d="M314.43,75.7a13.65,13.65,0,1,1,13.65-13.65A13.66,13.66,0,0,1,314.43,75.7Zm0-20.38a6.73,6.73,0,1,0,6.73,6.73A6.74,6.74,0,0,0,314.43,55.32Z"/><g id="_Groupe_4" data-name="&lt;Groupe&gt;"><path class="cls-2" d="M117.8,147.11a3.49,3.49,0,0,1-2.45-1l-14.67-14.68a3.46,3.46,0,1,1,4.9-4.89l14.67,14.67a3.46,3.46,0,0,1-2.45,5.91Z"/><path class="cls-2" d="M103.13,147.11a3.46,3.46,0,0,1-2.45-5.91l14.67-14.67a3.46,3.46,0,0,1,4.9,4.89L105.58,146.1A3.49,3.49,0,0,1,103.13,147.11Z"/></g><g id="_Groupe_5" data-name="&lt;Groupe&gt;"><path class="cls-2" d="M412.3,256.46a3.49,3.49,0,0,1-2.45-1l-29.69-29.69a3.46,3.46,0,0,1,4.89-4.9l29.7,29.69a3.46,3.46,0,0,1-2.45,5.91Z"/><path class="cls-2" d="M382.61,256.46a3.46,3.46,0,0,1-2.45-5.91l29.69-29.69a3.46,3.46,0,0,1,4.9,4.9l-29.7,29.69A3.45,3.45,0,0,1,382.61,256.46Z"/></g><g id="_Groupe_6" data-name="&lt;Groupe&gt;"><path class="cls-2" d="M324.62,366.14h-117a5.16,5.16,0,0,1-5.17-5.17V309.28c0-20.74,22.57-37.9,37.5-49.26,2.78-2.1,5.26-4,7.18-5.59V234.09c-1.91-1.59-4.4-3.48-7.17-5.59C225,217.14,202.44,200,202.44,179.22V127.54a5.17,5.17,0,0,1,5.17-5.17h117a5.18,5.18,0,0,1,5.17,5.17v51.68c0,20.77-22.57,37.94-37.5,49.3-2.76,2.1-5.23,4-7.14,5.57v20.34c1.93,1.62,4.46,3.55,7.29,5.7,14.87,11.34,37.35,28.48,37.35,49.15V361A5.17,5.17,0,0,1,324.62,366.14ZM212.78,355.8H319.44V309.28c0-15.55-20-30.82-33.27-40.92-3.56-2.72-6.68-5.09-9-7.16a5.08,5.08,0,0,1-2.36-4.28v-25a5.47,5.47,0,0,1,1.67-3.95c2.36-2.17,5.69-4.7,9.55-7.64,13.3-10.13,33.41-25.43,33.41-41.07V132.71H212.78v46.51c0,15.62,20.12,30.92,33.43,41.05,3.87,2.94,7.21,5.49,9.58,7.66a5.21,5.21,0,0,1,1.67,3.6v25.25a5.15,5.15,0,0,1-1.67,3.81c-2.36,2.17-5.71,4.72-9.59,7.67-13.3,10.12-33.42,25.41-33.42,41Zm39.51-99h0Z"/><path class="cls-2" d="M324.62,144.86h-117a5.17,5.17,0,0,1,0-10.34h117a5.17,5.17,0,1,1,0,10.34Z"/><path class="cls-2" d="M320.45,192.79H211.78a5.17,5.17,0,0,1,0-10.34H320.45a5.17,5.17,0,1,1,0,10.34Z"/><path class="cls-2" d="M324.62,350h-117a5.17,5.17,0,0,1,0-10.34h117a5.17,5.17,0,1,1,0,10.34Z"/><path class="cls-2" d="M306.31,349.59H225.92A5.17,5.17,0,0,1,222,341l40.19-46.52a5.34,5.34,0,0,1,7.83,0L310.22,341a5.17,5.17,0,0,1-3.91,8.55Zm-69.09-10.34H295l-28.9-33.44Z"/></g></g></g></svg>