<svg xmlns="http://www.w3.org/2000/svg" viewBox="0 0 35.71 20.35"><defs><style>.cls-1{fill:#2d2f77;}</style></defs><title>Fichier 32</title><g id="Calque_2" data-name="Calque 2"><g id="Calque_1-2" data-name="Calque 1"><path class="cls-1" d="M35,19H27.6a2,2,0,0,0,.12-.69v-.7h3.44a4.52,4.52,0,0,0,3.2-7.71l-.45-.45L30,5.5h0l-2-2A12,12,0,0,0,19.54,0H.7a.7.7,0,1,0,0,1.39H19.54A10.53,10.53,0,0,1,27,4.5l.8.8h-8a2.65,2.65,0,1,0,0,5.29H33.13l.24.25a3.1,3.1,0,0,1,.92,2.2,3.13,3.13,0,0,1-3.13,3.13H.7a.7.7,0,1,0,0,1.39H3.8v.7a2,2,0,0,0,.12.69H.73a.7.7,0,0,0,0,1.4H12.44a.7.7,0,0,0,0-1.4H7.86A2,2,0,0,0,8,18.26v-.7H23.54v.7a2,2,0,0,0,.12.69H17.88a.7.7,0,0,0,0,1.4H35A.7.7,0,0,0,35,19ZM19.8,9.2a1.26,1.26,0,0,1,0-2.51h9.42L31.73,9.2ZM6.59,18.26a.7.7,0,0,1-1.4,0v-.7h1.4Zm19.74,0a.7.7,0,0,1-1.4,0v-.7h1.4v.7Z"/><path class="cls-1" d="M15.65,19.16a.71.71,0,0,0-.49-.21.67.67,0,0,0-.49.21.68.68,0,0,0,0,1,.67.67,0,0,0,.49.21.71.71,0,0,0,.49-.21.7.7,0,0,0,0-1Z"/><path class="cls-1" d="M11.57,5.3H3.36a.7.7,0,1,0,0,1.39h8.21a1.26,1.26,0,0,1,0,2.51H.7a.7.7,0,1,0,0,1.39H11.57a2.65,2.65,0,1,0,0-5.29Z"/><path class="cls-1" d="M1.19,5.5A.7.7,0,0,0,.7,5.3.68.68,0,0,0,0,6a.7.7,0,0,0,.2.5.7.7,0,0,0,.5.2.7.7,0,0,0,.49-.2.71.71,0,0,0,0-1Z"/></g></g></svg>