<svg xmlns="http://www.w3.org/2000/svg" viewBox="0 0 555.1 512"><defs><style>.cls-1{fill:#f1f0f0;}.cls-2{fill:#aaaad5;}</style></defs><title>Fichier 3</title><g id="Calque_2" data-name="Calque 2"><g id="Calque_1-2" data-name="Calque 1"><circle id="_Tracé_" data-name="&lt;Tracé&gt;" class="cls-1" cx="280.1" cy="256" r="256"/><g id="_Groupe_" data-name="&lt;Groupe&gt;"><g id="_Groupe_2" data-name="&lt;Groupe&gt;"><path class="cls-2" d="M75.16,370.4H2.59a2.59,2.59,0,1,1,0-5.17H75.16a2.59,2.59,0,1,1,0,5.17Z"/><path class="cls-2" d="M552.51,370.4H489.83a2.59,2.59,0,1,1,0-5.17h62.68a2.59,2.59,0,1,1,0,5.17Z"/><path class="cls-2" d="M475.13,370.4h-372a2.59,2.59,0,1,1,0-5.17h372a2.59,2.59,0,0,1,0,5.17Z"/></g><g id="_Groupe_3" data-name="&lt;Groupe&gt;"><path class="cls-2" d="M145.19,400.14H85.78a1.3,1.3,0,1,1,0-2.59h59.41a1.3,1.3,0,1,1,0,2.59Z"/><path class="cls-2" d="M240.83,400.14H181.37a1.3,1.3,0,0,1,0-2.59h59.46a1.3,1.3,0,0,1,0,2.59Z"/><path class="cls-2" d="M397.28,400.14H274.8a1.3,1.3,0,0,1,0-2.59H397.28a1.3,1.3,0,0,1,0,2.59Z"/><path class="cls-2" d="M503.08,400.14H433.4a1.3,1.3,0,0,1,0-2.59h69.68a1.3,1.3,0,1,1,0,2.59Z"/></g></g><g id="_Groupe_4" data-name="&lt;Groupe&gt;"><path class="cls-2" d="M218.53,68a3.46,3.46,0,0,1-2.45-1L202.31,53.24a3.46,3.46,0,0,1,4.89-4.9L221,62.11A3.46,3.46,0,0,1,218.53,68Z"/><path class="cls-2" d="M204.76,68a3.46,3.46,0,0,1-2.45-5.91l13.77-13.77a3.46,3.46,0,0,1,4.89,4.9L207.2,67A3.45,3.45,0,0,1,204.76,68Z"/></g><path class="cls-2" d="M360.37,106.8a18.17,18.17,0,1,1,18.16-18.17A18.19,18.19,0,0,1,360.37,106.8Zm0-29.41a11.25,11.25,0,1,0,11.24,11.24A11.26,11.26,0,0,0,360.37,77.39Z"/><path class="cls-2" d="M115.49,223.31a10.14,10.14,0,1,1,10.14-10.14A10.16,10.16,0,0,1,115.49,223.31Zm0-13.36a3.22,3.22,0,1,0,3.21,3.22A3.22,3.22,0,0,0,115.49,210Z"/><g id="_Groupe_5" data-name="&lt;Groupe&gt;"><g id="_Groupe_6" data-name="&lt;Groupe&gt;"><path class="cls-2" d="M190.5,219.33a49.8,49.8,0,1,1,49.8-49.8A49.86,49.86,0,0,1,190.5,219.33Zm0-89.26A39.46,39.46,0,1,0,230,169.53,39.5,39.5,0,0,0,190.5,130.07Z"/><path class="cls-2" d="M265.58,346.64H115.4a5.16,5.16,0,0,1-5.17-5.17V308a79.89,79.89,0,0,1,67.26-79.21A5.17,5.17,0,1,1,179.15,239a69.59,69.59,0,0,0-58.58,69V336.3H260.41V308a69.86,69.86,0,0,0-58.54-69,5.17,5.17,0,1,1,1.66-10.21A80.21,80.21,0,0,1,270.76,308v33.46A5.17,5.17,0,0,1,265.58,346.64Z"/></g><path class="cls-2" d="M307,243.65a49.8,49.8,0,1,1,49.8-49.8A49.86,49.86,0,0,1,307,243.65Zm0-89.26a39.46,39.46,0,1,0,39.46,39.46A39.5,39.5,0,0,0,307,154.39Z"/><path class="cls-2" d="M382.11,371H231.92a5.17,5.17,0,0,1-5.17-5.17V343.7a5.18,5.18,0,1,1,10.35,0v16.92H376.94V332.33a69.88,69.88,0,0,0-58.54-69,5.17,5.17,0,1,1,1.65-10.2,80.19,80.19,0,0,1,67.23,79.2v33.46A5.16,5.16,0,0,1,382.11,371Z"/><path class="cls-2" d="M258.12,280.51a5.17,5.17,0,0,1-3.51-9c10.89-10.08,23.05-15.76,39.41-18.41a5.17,5.17,0,0,1,1.66,10.2c-14.43,2.35-24.61,7.07-34,15.8A5.18,5.18,0,0,1,258.12,280.51Z"/></g><path class="cls-2" d="M432.31,225.51A15.45,15.45,0,0,1,416.85,210V176.11H382.92a15.46,15.46,0,1,1,0-30.92h33.94V111.26A15.45,15.45,0,0,1,432.31,95.8a15.48,15.48,0,0,1,15.46,15.46v33.93H481.7a15.46,15.46,0,1,1,0,30.92H447.77V210A15.49,15.49,0,0,1,432.31,225.51Zm-49.4-70a5.11,5.11,0,0,0-3.61,8.74,5.06,5.06,0,0,0,3.62,1.5h44.27V210a5.12,5.12,0,1,0,10.24,0V165.77H481.7a5.12,5.12,0,0,0,5.12-5.12,5.13,5.13,0,0,0-5.12-5.12H437.42V111.26a5.12,5.12,0,1,0-10.23,0v44.27Z"/></g></g></svg>