<svg xmlns="http://www.w3.org/2000/svg" viewBox="0 0 35.71 20.71"><defs><style>.cls-1{fill:#2d2f77;}</style></defs><title>Fichier 29</title><g id="Calque_2" data-name="Calque 2"><g id="Calque_1-2" data-name="Calque 1"><path class="cls-1" d="M31,8.5H28.66L26.48,3.37A5.5,5.5,0,0,0,21.4,0H17.85a.7.7,0,0,0,0,1.4H21.4a4.11,4.11,0,0,1,3.8,2.51L27.15,8.5H18V3.39a.7.7,0,1,0-1.39,0V8.5H7V5.42a4,4,0,0,1,4-4h1.44a.7.7,0,0,0,0-1.4H11A5.42,5.42,0,0,0,5.62,5.42V8.5H4.71A4.71,4.71,0,0,0,0,13.21v4.57a.69.69,0,0,0,.7.69H3.28a.7.7,0,1,0,0-1.39H1.4V14.71H3.51A.7.7,0,0,0,4.2,14V11.44a.7.7,0,0,0-.69-.7h-1a3.36,3.36,0,0,1,2.22-.85H29.43v1.95a.7.7,0,0,0,.7.7h4.12a3,3,0,0,1,.07.67v3.87H33a.7.7,0,1,0,0,1.39h2a.69.69,0,0,0,.69-.69V13.21A4.71,4.71,0,0,0,31,8.5ZM2.81,12.14v1.17H1.4v-.1a3.38,3.38,0,0,1,.17-1.07Zm28-1V9.89H31a3.31,3.31,0,0,1,2.59,1.25Z"/><path class="cls-1" d="M24.21,17.28a.71.71,0,1,0,.2.5A.7.7,0,0,0,24.21,17.28Z"/><path class="cls-1" d="M21.09,17.08H18V15.41a.7.7,0,1,0-1.39,0v1.67H12.9a.7.7,0,0,0,0,1.39h8.19a.7.7,0,1,0,0-1.39Z"/><path class="cls-1" d="M15.68.2a.7.7,0,0,0-1,0,.71.71,0,0,0-.21.5.7.7,0,0,0,1.4,0A.71.71,0,0,0,15.68.2Z"/><path class="cls-1" d="M16,11.75H14.4a.7.7,0,0,0,0,1.39H16a.7.7,0,0,0,0-1.39Z"/><path class="cls-1" d="M8.16,14.83a2.94,2.94,0,1,0,2.94,2.94A2.94,2.94,0,0,0,8.16,14.83Zm0,4.48A1.55,1.55,0,1,1,9.7,17.77,1.55,1.55,0,0,1,8.16,19.31Z"/><path class="cls-1" d="M28.68,14.83a2.94,2.94,0,1,0,2.94,2.94A2.94,2.94,0,0,0,28.68,14.83Zm0,4.48a1.55,1.55,0,0,1,0-3.09,1.55,1.55,0,1,1,0,3.09Z"/></g></g></svg>