<svg xmlns="http://www.w3.org/2000/svg" viewBox="0 0 32.82 32.82"><defs><style>.cls-1{fill:#2d2f77;}</style></defs><title>Fichier 31</title><g id="Calque_2" data-name="Calque 2"><g id="Calque_1-2" data-name="Calque 1"><path class="cls-1" d="M30.85,26.87l-.27-2.75,1.63-1.62A2.1,2.1,0,0,0,30.1,19l-.2-2.09,1.6-1.6a2.1,2.1,0,0,0-2.09-3.49l-.2-2.12.29-.29a9.36,9.36,0,0,0,2.61-8.15A.7.7,0,0,0,31.54.7a9.42,9.42,0,0,0-8.16,2.62l-.29.29L21,3.4a2.09,2.09,0,0,0-3.48-2.08l-1.6,1.6-2.09-.2A2.1,2.1,0,0,0,10.32.61L8.7,2.23,6,2a.72.72,0,0,0-.56.2l-3,3a.68.68,0,0,0-.2.59.7.7,0,0,0,.2.39,1.09,1.09,0,0,0,.17.13l3.74,2A.7.7,0,0,0,7,7L4.05,5.49l2.1-2.1,15.67,1.5-6.49,6.48L11.69,9.48a.69.69,0,0,0-.94.29.71.71,0,0,0,.13.82.52.52,0,0,0,.17.12l3.24,1.7-4.15,4.15H2.63a.68.68,0,0,0-.49.2L.2,18.71a.68.68,0,0,0-.18.65.67.67,0,0,0,.18.33.65.65,0,0,0,.27.17L6.91,22a12.11,12.11,0,0,0-.45,3.65.7.7,0,0,0,.2.47.71.71,0,0,0,.48.21,12.43,12.43,0,0,0,3.65-.45L13,32.34a.61.61,0,0,0,.16.27.69.69,0,0,0,1,0L16,30.68a.71.71,0,0,0,.21-.49V22.68l4.15-4.16,6.12,11.74a.7.7,0,0,0,.13.17.78.78,0,0,0,.38.2.7.7,0,0,0,.6-.2l3-3A.74.74,0,0,0,30.85,26.87ZM10.5,2.41l.81-.81a.7.7,0,0,1,1,1Zm7.19.68.79-.78a.68.68,0,0,1,1,0,.69.69,0,0,1,0,.95ZM2,18.9,2.92,18h6a12.26,12.26,0,0,0-1.56,2.75Zm18.11-2h0l-4.92,4.92a10.84,10.84,0,0,1-6.24,3.08l4.79-4.78a.7.7,0,1,0-1-1L8,23.88A10.84,10.84,0,0,1,11,17.65L16,12.72h0L24.37,4.3A8,8,0,0,1,30.8,2a8,8,0,0,1-2.29,6.44Zm-5.25,13-.93.93-1.81-5.37a12.26,12.26,0,0,0,2.75-1.56Zm16.37-9.38a.71.71,0,0,1,0,1l-.81.81-.17-1.8A.69.69,0,0,1,31.22,20.52Zm-.71-7.17a.71.71,0,0,1,0,1l-.78.79-.18-1.8A.7.7,0,0,1,30.51,13.35ZM27.33,28.77,21.44,17.49,27.93,11l1.5,15.67Z"/></g></g></svg>