<svg xmlns="http://www.w3.org/2000/svg" viewBox="0 0 35.71 35.71"><defs><style>.cls-1{fill:#2d2f77;}</style></defs><title>Fichier 30</title><g id="Calque_2" data-name="Calque 2"><g id="Calque_1-2" data-name="Calque 1"><path class="cls-1" d="M35,34.32H32V28.81a.7.7,0,0,0-1.4,0v5.51H22.18V21.07a.7.7,0,0,0-.7-.7H14.23a.7.7,0,0,0-.7.7V34.32H5.16V18.55h.27a.68.68,0,0,0,.49-.2L17.86,6.42,29.79,18.35a.7.7,0,0,0,.49.2h.27v5.24a.7.7,0,0,0,1.4,0V18.55H35a.7.7,0,0,0,.49-1.19L18.35.2a.71.71,0,0,0-1,0L10.81,6.76a.7.7,0,0,0,1,1l6.07-6.07L33.33,17.16H30.57L18.35,4.94a.69.69,0,0,0-1,0L5.14,17.16H2.38l5.51-5.51a.69.69,0,0,0,0-1,.71.71,0,0,0-1,0L.2,17.36a.71.71,0,0,0-.15.76.71.71,0,0,0,.65.43H3.77V34.32H.7a.7.7,0,1,0,0,1.39H35a.7.7,0,0,0,0-1.39Zm-14.23,0H14.93V21.76h5.86Z"/><path class="cls-1" d="M28.32,20.37H24.41a.69.69,0,0,0-.69.7v7a.69.69,0,0,0,.69.7h3.91A.7.7,0,0,0,29,28v-7A.7.7,0,0,0,28.32,20.37Zm-.7,7H25.11V21.76h2.51Z"/><path class="cls-1" d="M11.3,20.37H7.39a.69.69,0,0,0-.69.7v7a.69.69,0,0,0,.69.7H11.3A.7.7,0,0,0,12,28v-7A.7.7,0,0,0,11.3,20.37Zm-.7,7H8.09V21.76H10.6Z"/><path class="cls-1" d="M17.86,11.46a3.21,3.21,0,1,0,3.21,3.21A3.21,3.21,0,0,0,17.86,11.46Zm0,5a1.81,1.81,0,1,1,1.81-1.81A1.82,1.82,0,0,1,17.86,16.48Z"/><path class="cls-1" d="M17,27.55a.71.71,0,0,0-1.2.49.67.67,0,0,0,.21.49A.7.7,0,0,0,17.23,28,.74.74,0,0,0,17,27.55Z"/><path class="cls-1" d="M9.77,8.78a.7.7,0,0,0-1,1,.7.7,0,1,0,1-1Z"/><path class="cls-1" d="M31.74,25.62a.7.7,0,0,0-1.19.49.75.75,0,0,0,.21.5.7.7,0,0,0,1,0,.73.73,0,0,0,.21-.5A.71.71,0,0,0,31.74,25.62Z"/></g></g></svg>