<svg xmlns="http://www.w3.org/2000/svg" viewBox="0 0 555.1 512"><defs><style>.cls-1{fill:#f1f0f0;}.cls-2{fill:#5a5eaa;}</style></defs><title>Fichier 1</title><g id="Calque_2" data-name="Calque 2"><g id="Calque_1-2" data-name="Calque 1"><circle id="_Tracé_" data-name="&lt;Tracé&gt;" class="cls-1" cx="286.92" cy="256" r="256"/><g id="_Groupe_" data-name="&lt;Groupe&gt;"><path class="cls-2" d="M467,219.06a3.49,3.49,0,0,1-2.45-1l-23.31-23.31a3.46,3.46,0,1,1,4.89-4.9l23.32,23.31a3.46,3.46,0,0,1-2.45,5.91Z"/><path class="cls-2" d="M443.66,219.06a3.46,3.46,0,0,1-2.45-5.91l23.31-23.31a3.46,3.46,0,1,1,4.9,4.9L446.1,218.05A3.45,3.45,0,0,1,443.66,219.06Z"/></g><g id="_Groupe_2" data-name="&lt;Groupe&gt;"><path class="cls-2" d="M122.4,166.74a3.42,3.42,0,0,1-2.44-1l-18.25-18.24a3.46,3.46,0,0,1,4.89-4.9l18.25,18.25a3.47,3.47,0,0,1-2.45,5.91Z"/><path class="cls-2" d="M104.15,166.74a3.42,3.42,0,0,1-2.44-1,3.46,3.46,0,0,1,0-4.89L120,142.58a3.46,3.46,0,1,1,4.89,4.9L106.6,165.72A3.43,3.43,0,0,1,104.15,166.74Z"/></g><g id="_Groupe_3" data-name="&lt;Groupe&gt;"><g id="_Groupe_4" data-name="&lt;Groupe&gt;"><path class="cls-2" d="M75.16,370.4H2.59a2.59,2.59,0,1,1,0-5.17H75.16a2.59,2.59,0,1,1,0,5.17Z"/><path class="cls-2" d="M552.51,370.4H489.83a2.59,2.59,0,1,1,0-5.17h62.68a2.59,2.59,0,1,1,0,5.17Z"/><path class="cls-2" d="M475.13,370.4h-372a2.59,2.59,0,1,1,0-5.17h372a2.59,2.59,0,0,1,0,5.17Z"/></g><g id="_Groupe_5" data-name="&lt;Groupe&gt;"><path class="cls-2" d="M145.2,400.14H85.78a1.3,1.3,0,0,1,0-2.59H145.2a1.3,1.3,0,0,1,0,2.59Z"/><path class="cls-2" d="M240.83,400.14H181.37a1.3,1.3,0,0,1,0-2.59h59.46a1.3,1.3,0,0,1,0,2.59Z"/><path class="cls-2" d="M397.28,400.14H274.8a1.3,1.3,0,0,1,0-2.59H397.28a1.3,1.3,0,1,1,0,2.59Z"/><path class="cls-2" d="M503.08,400.14H433.4a1.3,1.3,0,0,1,0-2.59h69.68a1.3,1.3,0,1,1,0,2.59Z"/></g></g><path class="cls-2" d="M344.48,73.44a12.58,12.58,0,1,1,12.59-12.58A12.59,12.59,0,0,1,344.48,73.44Zm0-18.24a5.66,5.66,0,1,0,5.67,5.66A5.67,5.67,0,0,0,344.48,55.2Z"/><path class="cls-2" d="M240.83,97.27A18.17,18.17,0,1,1,259,79.11,18.17,18.17,0,0,1,240.83,97.27Zm0-29.41a11.25,11.25,0,1,0,11.25,11.25A11.26,11.26,0,0,0,240.83,67.86Z"/><g id="_Groupe_6" data-name="&lt;Groupe&gt;"><g id="_Groupe_7" data-name="&lt;Groupe&gt;"><path class="cls-2" d="M151,246.5a5.08,5.08,0,0,1-1.34-.17,5.2,5.2,0,0,1-3.58-3.4l0-.12a5.18,5.18,0,0,1,3.07-6.43l.32-.13a5.17,5.17,0,0,1,5.3,8.69l-.28.25A5.16,5.16,0,0,1,151,246.5Z"/><path class="cls-2" d="M358.33,181.27a31.4,31.4,0,0,1-18.12-5.82,5.17,5.17,0,1,1,6-8.41,20.57,20.57,0,0,0,12.57,3.88h.13a5.17,5.17,0,0,1,.12,10.34Z"/><path class="cls-2" d="M195.91,369.8a5.18,5.18,0,0,1-4.86-3.4L146.36,243.64a5.17,5.17,0,0,1,8.82-5.09L236,334.78,352.4,237a5.18,5.18,0,0,1,7.59,1,20.79,20.79,0,0,0,24.33,7.81A5.17,5.17,0,0,1,391,249L405.3,288.4a5.17,5.17,0,0,1-3.09,6.63L197.68,369.49A5.2,5.2,0,0,1,195.91,369.8Zm-29.8-102.14L199,358,232,346a5,5,0,0,1-.6-.61Zm189-19.36L243.8,341.69l150-54.61-11-30.1A31.14,31.14,0,0,1,355.07,248.3Z"/><path class="cls-2" d="M337.28,316.05a5.18,5.18,0,0,1-4.86-3.4l-10.36-28.48a5.17,5.17,0,0,1,9.72-3.54l10.36,28.48a5.17,5.17,0,0,1-4.86,6.94Z"/></g></g><g id="_Groupe_8" data-name="&lt;Groupe&gt;"><g id="_Groupe_9" data-name="&lt;Groupe&gt;"><path class="cls-2" d="M151.22,247a5.17,5.17,0,0,1-4.05-1.95l-.33-.42a5.17,5.17,0,0,1,.83-7.27,5.35,5.35,0,0,1,4.73-1,5.17,5.17,0,0,1,3.52,3.21l.18.53a5.17,5.17,0,0,1-4.88,6.87Z"/><path class="cls-2" d="M151.32,246.25a5.17,5.17,0,0,1-3.33-9.13L314.29,97.6a5.18,5.18,0,0,1,7.29.64l24,28.63a5.17,5.17,0,0,1-.64,7.28,20.82,20.82,0,0,0-2.57,29.33,20.25,20.25,0,0,0,3.81,3.53,5.17,5.17,0,0,1-5.94,8.47,31.18,31.18,0,0,1-5.64-45.6l-17.64-21L154.64,245A5.12,5.12,0,0,1,151.32,246.25Z"/><path class="cls-2" d="M355.72,246.17A5.17,5.17,0,0,1,352.4,237l42.34-35.52L374.15,177A31.06,31.06,0,0,1,359,181.26h-.1a5.17,5.17,0,0,1-.09-10.34,20.54,20.54,0,0,0,12.92-4.87,5.18,5.18,0,0,1,7.28.64l27,32.14a5.18,5.18,0,0,1-.64,7.29L359,245A5.08,5.08,0,0,1,355.72,246.17Z"/><path class="cls-2" d="M287.39,174.05a5.13,5.13,0,0,1-4-1.84l-20.67-24.63a5.17,5.17,0,0,1,7.93-6.64l20.66,24.62a5.17,5.17,0,0,1-4,8.49Z"/></g></g><path class="cls-2" d="M250.31,201.83A5.17,5.17,0,0,1,247,192.7l23.07-19.36a5.17,5.17,0,1,1,6.65,7.93l-23.07,19.35A5.12,5.12,0,0,1,250.31,201.83Z"/><path class="cls-2" d="M182.27,258.92a5.17,5.17,0,0,1-3.32-9.13l55.66-46.71a5.17,5.17,0,1,1,6.65,7.92l-55.67,46.71A5.08,5.08,0,0,1,182.27,258.92Z"/><path class="cls-2" d="M247.32,236a5.17,5.17,0,0,1-3.32-9.13l41.62-34.93a5.17,5.17,0,1,1,6.65,7.92l-41.63,34.93A5.13,5.13,0,0,1,247.32,236Z"/><path class="cls-2" d="M197.84,277.48a5.17,5.17,0,0,1-3.32-9.13l37.11-31.14a5.17,5.17,0,1,1,6.64,7.92l-37.1,31.14A5.18,5.18,0,0,1,197.84,277.48Z"/><path class="cls-2" d="M213.41,296a5.17,5.17,0,0,1-3.32-9.13l91.1-76.44a5.17,5.17,0,1,1,6.65,7.92l-91.11,76.44A5.13,5.13,0,0,1,213.41,296Z"/><path class="cls-2" d="M290.83,262.69a5.17,5.17,0,0,1-3.32-9.13L316.76,229a5.17,5.17,0,1,1,6.65,7.92l-29.26,24.55A5.13,5.13,0,0,1,290.83,262.69Z"/></g></g></svg>