<svg xmlns="http://www.w3.org/2000/svg" viewBox="0 0 300 440.05"><defs><style>.cls-1{fill:#5a5eaa;}.cls-2{fill:#2d2f77;}.cls-3{fill:#fff;}</style></defs><title>Fichier 12</title><g id="Calque_2" data-name="Calque 2"><g id="Calque_1-2" data-name="Calque 1"><path class="cls-1" d="M150,432.44C127.45,398.77,4.25,211.66,4.25,142,4.25,66.06,69.63,4.25,150,4.25S295.75,66.06,295.75,142C295.75,211.66,172.55,398.77,150,432.44Z"/><path class="cls-2" d="M150,8.5c37.88,0,73.47,14,100.22,39.28S291.5,106.46,291.5,142c0,30.57-25.52,90.76-73.81,174.07C190.29,363.4,162.6,405.84,150,424.79c-12.6-19-40.29-61.39-67.69-108.68C34,232.8,8.5,172.61,8.5,142,8.5,106.46,23.16,73,49.78,47.78S112.12,8.5,150,8.5M150,0C67.16,0,0,63.59,0,142s150,298,150,298S300,220.49,300,142,232.84,0,150,0Z"/><path class="cls-3" d="M150,194.74A52.7,52.7,0,1,1,202.7,142,52.76,52.76,0,0,1,150,194.74Z"/><path class="cls-2" d="M150,93.59A48.45,48.45,0,1,1,101.55,142,48.51,48.51,0,0,1,150,93.59m0-8.5A57,57,0,1,0,207,142,57,57,0,0,0,150,85.09Z"/></g></g></svg>