<svg xmlns="http://www.w3.org/2000/svg" viewBox="0 0 78.26 100"><defs><style>.cls-1{fill:#5a5eaa;}.cls-2{fill:#2d2f77;}</style></defs><title>Fichier 33</title><g id="Calque_2" data-name="Calque 2"><g id="Calque_1-2" data-name="Calque 1"><path class="cls-1" d="M39.13,98.35c-5.6-6.24-38-43.12-38-61.3,0-19.82,17.05-35.94,38-35.94s38,16.12,38,35.94C77.15,55.24,44.73,92.11,39.13,98.35Zm-.55-74.42a14.45,14.45,0,0,0-11.91,6.92,14.81,14.81,0,0,0-.82,14.07,121.83,121.83,0,0,0,12,19.31l.38.52,1,1.46.92-1.48s.12-.17.29-.4c6.76-9.23,10.28-15.65,12-19.41a14.81,14.81,0,0,0-.82-14.07,14.45,14.45,0,0,0-11.9-6.92h-1.1Z"/><path class="cls-2" d="M39.13,2.22C59.48,2.22,76,17.84,76,37.05c0,7.88-6.61,21-19.11,37.8-7.27,9.8-14.62,18.26-17.8,21.84-3.18-3.57-10.51-12-17.78-21.81C8.83,58,2.22,44.94,2.22,37.05c0-19.21,16.56-34.83,36.91-34.83M37.25,65.34l1.86,3.18L41,65.36l.27-.38c6.81-9.3,10.36-15.79,12.14-19.59a15.93,15.93,0,0,0-.89-15.12,15.56,15.56,0,0,0-12.81-7.45H38.55a15.59,15.59,0,0,0-12.82,7.45,15.9,15.9,0,0,0-.88,15.12A123.2,123.2,0,0,0,36.91,64.88l.34.46M39.13,0C17.52,0,0,16.59,0,37.05s39.13,63,39.13,63S78.26,57.52,78.26,37.05,60.74,0,39.13,0Zm0,64.16c-.21-.35-8-10.51-12.27-19.71A13.61,13.61,0,0,1,38.61,25h1A13.61,13.61,0,0,1,51.4,44.45c-4.3,9.22-12.09,19.4-12.27,19.71Z"/></g></g></svg>