<svg xmlns="http://www.w3.org/2000/svg" viewBox="0 0 300 411.7"><defs><style>.cls-1{fill:#5a5eaa;}.cls-2{fill:#2d2f77;}.cls-3{fill:#fff;}</style></defs><title>Fichier 13</title><g id="Calque_2" data-name="Calque 2"><g id="Calque_1-2" data-name="Calque 1"><path class="cls-1" d="M150,404.75C127.91,376,4.25,211.68,4.25,142,4.25,66.06,69.63,4.25,150,4.25S295.75,66.06,295.75,142C295.75,211.68,172.09,376,150,404.75Z"/><path class="cls-2" d="M150,8.5c37.88,0,73.47,14,100.22,39.28S291.5,106.46,291.5,142c0,30.41-25.44,85.57-73.56,159.51C190.33,344,162.43,381.42,150,397.75c-12.42-16.31-40.27-53.7-67.87-96.1C34,227.66,8.5,172.47,8.5,142,8.5,106.46,23.16,73,49.78,47.78S112.12,8.5,150,8.5M150,0C67.16,0,0,63.59,0,142S150,411.7,150,411.7,300,220.49,300,142,232.84,0,150,0Z"/><path class="cls-2" d="M265.87,100a18.5,18.5,0,0,0-25.25,6.77,9.32,9.32,0,0,0-.5,1,13.67,13.67,0,0,0-5.67-3.25h0c-.41-.12-.83-.27-1.26-.42a14.13,14.13,0,0,0-4.88-1h-.2c-3.46.08-5.59,1.7-7.47,4a12.61,12.61,0,0,0-4.25-3.51c1.69-2.74,3.36-5.54,4.95-8.38l0-.07,0-.07a20.83,20.83,0,0,0,2.69-9,11.6,11.6,0,0,0-5.19-10.44l0,0h0a36.41,36.41,0,0,0-7.36-3.47,9.26,9.26,0,0,0-3.16-.57c-1.93,0-5.54.66-8,5.1l-.06.1-.06.11c-4.14,7.94-9.07,15.8-13.85,23.4l-2.48,4h-.37a13.22,13.22,0,0,0-1.38.08c-7.73.81-16.05,5-22.69,11.36a24.46,24.46,0,0,0-4-2.29,10.76,10.76,0,0,0-2.89-.83,16.55,16.55,0,0,0-8.12-3.38,17.47,17.47,0,0,0-1.76-.1,18.75,18.75,0,0,0-7.9,1.88,49.28,49.28,0,0,0-11.37,7.36,17.18,17.18,0,0,0-5.15-3.61l-.06,0-.06,0a15.81,15.81,0,0,0-6.9-1.52c-.36,0-.75,0-1.14,0a26.11,26.11,0,0,0,.64-5.69A17.86,17.86,0,0,0,105.09,94c-4.88-4.58-11.27-6.81-19.53-6.81-1.83,0-3.76.1-5.89.31A73.39,73.39,0,0,0,64,90.72a9.52,9.52,0,0,0-6.1,11.17s.6,2.85,1.47,5.64c-11.59,16.11-22.43,33-32.47,48.95-2.23,3.41-2.59,7.24-1,10.28a8.21,8.21,0,0,0,7.25,4.33,44.52,44.52,0,0,0,9.33-1.39c6-1.37,9.53-3.88,13.67-9.59,2-2.74,3.85-5.38,5.64-7.94a113.48,113.48,0,0,1,8,13.77l.07.13.06.13a8.56,8.56,0,0,0,7.57,4.62c2.29,0,5.65-.88,8.69-5.08l.07-.11.07-.1c.55-.82,1-1.42,1.45-2l0,0a16.91,16.91,0,0,0,7.73,1.85,20.11,20.11,0,0,0,2.86-.22,29.72,29.72,0,0,0,16.34-8.5,15.19,15.19,0,0,0,2.22,1.3A15.33,15.33,0,0,0,125.7,161a13.58,13.58,0,0,0,6.82-1.93,23.55,23.55,0,0,0,3.35-2.36,11.24,11.24,0,0,0,6.3,1.87,14,14,0,0,0,2.47-.24,31,31,0,0,0,11.49-4.93,16.13,16.13,0,0,0,8.64,2.71,14.29,14.29,0,0,0,4.68-.79c-4.45,7-3.76,14.64-.2,19.48a16.7,16.7,0,0,0,13.41,6.68,17.12,17.12,0,0,0,2.36-.16C201.8,179,213,165,221.93,153c3.73-.62,7.25-1.07,10.69-1.36,4.87-.41,7.41-2.79,8.69-4.71l.24-.3a15.33,15.33,0,0,0,1.55-2.24l.08-.15.08-.15c.09-.18.15-.36.23-.54l3.11-1.34c5.06-2.16,21.87-9.77,26-17A18.51,18.51,0,0,0,265.87,100Z"/><path class="cls-3" d="M75.29,136.56c11.48-4.56,27.62-15,27.67-29.2a10.37,10.37,0,0,0-3.11-7.78c-4.58-4.3-10.82-5.3-19.43-4.46A65.5,65.5,0,0,0,66.49,98a1.9,1.9,0,0,0-1.1,2.37A43.1,43.1,0,0,0,67.68,108a2.65,2.65,0,0,0,.46.51C55.79,125.36,44.46,143,33.32,160.64c-.91,1.38-1,2.76-.18,2.75a38.31,38.31,0,0,0,7.6-1.18c3.94-.91,6-2.19,9.17-6.62,4.38-6,8.25-11.68,11.91-17,5.34,7.7,10.89,15.52,14.94,24,.55,1.05,1.92.37,3.2-1.4,2.38-3.53,3.39-3.82,3.39-6.39a11.4,11.4,0,0,0-1.28-4.63C80.24,146,77.85,141.28,75.29,136.56Zm2.29-30.45a59.88,59.88,0,0,1,11.09-2.5c4.4-.47,7.51,0,9.44,1.59-4,12.12-17.53,20.08-29.33,22.93,3.76-5.7,7.24-11.24,10.91-17C81,109.18,80.05,108.08,77.58,106.11Z"/><path class="cls-3" d="M235.46,140.05a114.66,114.66,0,0,0-14.66,1c4.86-7.82,9.79-15.62,14.11-23.76,1.47-2.67.37-4.51-2.75-5.48-1.74-.53-3-1.15-3.94-1.13s-1.37.58-3.57,3.67c-6.87,9.64-12,14.79-16.13,17.53,1.47-3.57,3.76-8.11,5.31-11.86,2.66-6.28,1.65-8.89-2.29-10.32a10.31,10.31,0,0,0-4-.66c-.73,0-1.19.45-1.37,1.47-.55,2.51-2.68,7.69-7.06,15.1-3.35,5.67-4.89,8.95-5.15,11.08A13.73,13.73,0,0,1,190.1,139c-1.19-2.64,1.18-8.45,7.52-19.74,5.32-9.47,11.65-18.4,16.95-27.92,2.2-4.14,2.56-7.73.09-9.35a29.32,29.32,0,0,0-5.77-2.69c-.83-.31-1.29-.1-1.93,1C200.88,92,193.46,103,186.62,114.23c-1.1-1.9-1.92-2.55-3.76-2.36-6.23.66-13.88,4.58-19.7,10.81s-8.24,11.69-8.24,15.17a12.26,12.26,0,0,0,.23,2.44,15.86,15.86,0,0,1-5,2.68A47.72,47.72,0,0,1,158,126.91a2,2,0,0,0,.37-2.16,21.52,21.52,0,0,0-6.14-4.42,3.45,3.45,0,0,0-2.66,0,9.77,9.77,0,0,0-6-3.58,10.43,10.43,0,0,0-5.68,1.13,46.78,46.78,0,0,0-17,14.13c-.48.64-.92,1.27-1.33,1.88-.23.08-.45.16-.68.22a23.35,23.35,0,0,0,.18-2.5,9,9,0,0,0-1.93-6c.92-.67,1-1,1-1.33,0-.55-.64-1.47-3.3-2.77a9.36,9.36,0,0,0-5.59-.65c-5.4.69-14.68,7.3-19.7,14.54-6,8.6-5.31,14.78-1.19,19a9.84,9.84,0,0,0,9,3.1c8.16-1.2,14.68-7.85,18.56-15.27a7.65,7.65,0,0,0,1,5.49,8.29,8.29,0,0,0,4,3.49c3.57,2.64,5.59,2.44,7.88,1.14,2.55-1.45,5.86-4.74,9.62-9.55-.82,5.33,1,8.69,4.86,8,4.87-.93,9.31-3.77,13.19-7.45a9.87,9.87,0,0,0,2,2.23c4.21,3.4,7.26,3.76,11.09,1.19,2.86-1.93,5.86-5.28,8.7-9.35a8.17,8.17,0,0,0,1.47,4.42c2,2.8,4,3.58,6.23,3.28a17.8,17.8,0,0,0,9.46-4.9,6.88,6.88,0,0,0,5.29,2.1c1.1-.09,3-.78,5.59-2.61a65.14,65.14,0,0,0,8.25-7.92c-2.48,4.25-4.86,8.06-7.06,11.5-10.31,2.32-21.46,6-29,13.26-5.12,4.93-5.16,10.68-2.93,13.71A9.09,9.09,0,0,0,184,173.7c14.73-2,25.07-16.24,33.63-27.71A144,144,0,0,1,232,144a3.75,3.75,0,0,0,2.93-1.31c.55-.83,1-1.19,1.47-2C236.56,140.32,236.19,140.05,235.46,140.05ZM97,151c-.64-5.7,3.75-12.07,9.53-17.47a5.92,5.92,0,0,0,5.5,5.8C108.46,144.7,102.51,149.76,97,151Zm17.41-16.29c-3-.06-4.4-1.54-4.58-4,1.55-1.2,3.11-2.32,4.58-3.34a5.1,5.1,0,0,1,.82,3.28A11.25,11.25,0,0,1,114.42,134.67Zm27.12-1.82c-4.4,6.37-9.35,11.08-14,13.73,1.15-10.35,10.36-18.82,19.24-23.14C145.11,126.05,143.19,129.51,141.54,132.85Zm38.12-4.23c-5.87,8.88-10,12-14.66,13.17,2.13-9.47,9.81-18,18.51-22A55,55,0,0,0,179.66,128.62Zm.91,38.38c-.44-.34,2-5.52,5-8.22,3.85-3.46,9.9-6.67,17.41-9.24C197.68,156.94,182.72,168.67,180.57,167Z"/><path class="cls-3" d="M263.1,104.8a12.94,12.94,0,0,0-17.68,4.73c-3.57,6.2-1,27.62-1,27.62s19.84-8.49,23.42-14.68A12.94,12.94,0,0,0,263.1,104.8Zm-9,15.61a5.63,5.63,0,1,1,7.7-2.06A5.65,5.65,0,0,1,254.09,120.41Z"/></g></g></svg>