<?xml version="1.0" encoding="utf-8"?>
<!-- Generator: Adobe Illustrator 22.1.0, SVG Export Plug-In . SVG Version: 6.00 Build 0)  -->
<svg version="1.1" id="Calque_1" xmlns="http://www.w3.org/2000/svg" xmlns:xlink="http://www.w3.org/1999/xlink" x="0px" y="0px"
	 viewBox="0 0 841.9 340.2" style="enable-background:new 0 0 841.9 340.2;" xml:space="preserve">
<style type="text/css">
	.st0{fill:#FFFFFF;}
</style>
<g>
	<g>
		<path class="st0" d="M171.9,200.8c37.7-15,90.7-49.3,90.9-96c0-9.9-3.3-19.2-10.2-25.5c-15.1-14.1-35.5-17.4-63.8-14.7
			c-16.6,1.6-35.2,5.6-45.8,9.4c-3.6,1.2-4.2,4.8-3.6,7.8c1.5,7.4,5.7,22.2,7.5,25c0.3,0.6,0.9,1.1,1.5,1.7
			C107.9,164,70.6,221.8,34,280c-3,4.5-3.3,9-0.6,9c5.1,0,13.6-1.3,25-3.9c12.9-3,19.6-7.2,30.1-21.7c14.4-19.9,27.1-38.4,39.1-55.7
			c17.5,25.3,35.8,51,49.1,78.9c1.8,3.4,6.3,1.2,10.5-4.6c7.8-11.6,11.1-12.6,11.1-21c0-4.5-1.5-9.2-4.2-15.2
			C188.2,231.8,180.4,216.3,171.9,200.8z M179.5,100.8c13.2-4.3,26.5-7.1,36.4-8.2c14.5-1.6,24.7-0.1,31,5.2
			c-13.2,39.8-57.6,66-96.3,75.4c12.3-18.7,23.8-36.9,35.8-55.9C190.6,110.8,187.6,107.2,179.5,100.8z"/>
		<path class="st0" d="M698.2,212.3c-12.3,0-29.5,0.9-48.2,3.4c16-25.7,32.2-51.3,46.4-78.1c4.8-8.7,1.2-14.8-9-18
			c-5.7-1.7-9.9-3.8-12.9-3.7c-3,0.1-4.5,1.9-11.7,12c-22.6,31.7-39.4,48.6-53,57.6c4.8-11.8,12.3-26.6,17.5-39
			c8.7-20.6,5.4-29.2-7.5-33.9c-5.1-1.8-9.6-2.4-13.2-2.2c-2.4,0.2-3.9,1.5-4.5,4.8c-1.8,8.3-8.8,25.3-23.2,49.6
			c-11,18.7-16.1,29.4-16.9,36.4c-4.4,3.6-8.5,5.9-12.6,7.4c-3.9-8.7,3.9-27.7,24.7-64.8c17.5-31.1,38.3-60.5,55.7-91.7
			c7.2-13.6,8.4-25.4,0.3-30.7c-3.9-2.5-11.4-6.3-19-8.8c-2.7-1-4.2-0.3-6.3,3.4c-20,38.4-44.4,74.4-66.8,111.3
			c-3.6-6.3-6.3-8.4-12.3-7.8c-20.5,2.2-45.6,15-64.7,35.5c-19.6,21-27.1,38.4-27.1,49.8c0,2.9,0.3,5.6,0.8,8
			c-5.8,4.4-11.1,7.2-16.4,8.8c4.8-18.1,14.2-37.4,25.9-52.8c2.1-2.7,2.1-5.7,1.2-7.1c-3.9-4.6-14.1-12-20.2-14.5
			c-3-1.4-6.3-1-8.7-0.1c-4.8-6-12.7-11-19.9-11.8c-6.5-0.7-12,0.7-18.7,3.7c-20.8,9.4-41.2,26.8-56,46.4c-1.6,2.1-3,4.2-4.4,6.2
			c-0.8,0.3-1.5,0.5-2.3,0.7c0.3-2.7,0.6-5.5,0.6-8.2c0-8.4-2.4-15-6.3-19.6c3-2.2,3.3-3.1,3.3-4.4c0-1.8-2.1-4.8-10.8-9.1
			c-6-2.8-11.4-3-18.4-2.1c-17.8,2.3-48.2,24-64.7,47.8c-19.6,28.3-17.5,48.6-3.9,62.4c7.8,7.9,17,12.1,29.5,10.2
			c26.8-4,48.2-25.8,61-50.2c-1.1,7.3,0.1,13.4,3.2,18c3.6,5.5,7.2,9,13.2,11.5c11.7,8.7,18.4,8,25.9,3.7
			c8.4-4.8,19.3-15.6,31.6-31.4c-2.7,17.5,3.3,28.6,16,26.1c16-3.1,30.6-12.4,43.3-24.5c1.8,2.7,4,5.2,6.6,7.3
			c13.8,11.2,23.8,12.3,36.4,3.9c9.4-6.3,19.3-17.3,28.6-30.7c0.3,6,2.1,10.6,4.8,14.5c6.6,9.2,13.2,11.8,20.5,10.8
			c11.6-1.6,22-7.8,31.1-16.1c6.3,5.7,12.1,7.3,17.4,6.9c3.6-0.3,9.9-2.6,18.4-8.6c3.9-3,14.5-11.8,27.1-26
			c-8.1,14-16,26.5-23.2,37.8c-33.9,7.6-70.5,19.6-95.4,43.6c-16.9,16.2-17,35.1-9.6,45c5.4,7.4,15.8,13.1,28,11.4
			c48.4-6.7,82.4-53.3,110.5-91c15.1-2.8,30.7-5.1,47.3-6.5c4.2-0.4,7.8-1.6,9.6-4.3s3.3-3.9,4.8-6.6
			C701.8,213.2,700.6,212.3,698.2,212.3z M243.3,248.1c-2.1-18.7,12.3-39.7,31.3-57.4c0.9,9.8,6.3,17.6,18.1,19.1
			C280.9,227.6,261.4,244.2,243.3,248.1z M300.5,194.6c-9.9-0.2-14.5-5.1-15.1-13.1c5.1-4,10.2-7.6,15.1-11
			c1.8,2.2,2.7,5.7,2.7,10.8C303.2,185.5,302.3,189.9,300.5,194.6z M389.6,188.6c-14.5,20.9-30.7,36.4-46.1,45.1
			c3.8-34,34-61.8,63.2-76C401.4,166.3,395,177.7,389.6,188.6z M514.9,174.7c-19.3,29.2-32.8,39.6-48.2,43.3
			c7-31.1,32.3-59.1,60.8-72.3C521.8,156.5,517.6,166.3,514.9,174.7z M517.9,300.9c-1.4-1.1,6.4-18.2,16.3-27
			c12.6-11.4,32.5-21.9,57.2-30.4C574.1,267.8,524.9,306.3,517.9,300.9z"/>
	</g>
	<path class="st0" d="M789.1,96.5c-20.3-11.7-46.4-4.7-58.1,15.6c-11.7,20.3-3.3,90.8-3.3,90.8s65.2-27.9,76.9-48.2
		C816.3,134.2,809.4,108.2,789.1,96.5z M759.4,147.7c-8.8-5.1-11.9-16.4-6.8-25.3c5.1-8.9,16.5-11.9,25.3-6.8
		c8.9,5.1,11.9,16.4,6.8,25.3S768.3,152.9,759.4,147.7z"/>
</g>
</svg>
